<mxfile host="Electron" agent="Mozilla/5.0 (Macintosh; Intel Mac OS X 10_15_7) AppleWebKit/537.36 (KHTML, like Gecko) draw.io/26.1.1 Chrome/132.0.6834.210 Electron/34.3.3 Safari/537.36" version="26.1.1">
  <diagram name="Page-1" id="mqx8eBCoxH63VulygPff">
    <mxGraphModel dx="662" dy="417" grid="1" gridSize="10" guides="1" tooltips="1" connect="1" arrows="1" fold="1" page="1" pageScale="1" pageWidth="850" pageHeight="1100" math="0" shadow="0">
      <root>
        <mxCell id="0" />
        <mxCell id="1" parent="0" />
        <mxCell id="sxceuEu9c13BPBaXSLV--1" value="user-service" style="rounded=1;whiteSpace=wrap;html=1;" parent="1" vertex="1">
          <mxGeometry x="150" y="150" width="160" height="60" as="geometry" />
        </mxCell>
        <mxCell id="sxceuEu9c13BPBaXSLV--2" value="content-service" style="rounded=1;whiteSpace=wrap;html=1;" parent="1" vertex="1">
          <mxGeometry x="360" y="150" width="160" height="60" as="geometry" />
        </mxCell>
        <mxCell id="sxceuEu9c13BPBaXSLV--3" value="search-service" style="rounded=1;whiteSpace=wrap;html=1;" parent="1" vertex="1">
          <mxGeometry x="150" y="240" width="160" height="60" as="geometry" />
        </mxCell>
        <mxCell id="sxceuEu9c13BPBaXSLV--4" value="recommendation-service" style="rounded=1;whiteSpace=wrap;html=1;" parent="1" vertex="1">
          <mxGeometry x="360" y="240" width="160" height="60" as="geometry" />
        </mxCell>
      </root>
    </mxGraphModel>
  </diagram>
</mxfile>
